<mxfile host="app.diagrams.net" modified="2020-11-02T16:25:42.094Z" agent="5.0 (Windows)" etag="OEVBgkfUU3poj5rhfszp" version="13.8.8" type="github">
  <diagram id="SbvSPV5wl59pVkIzQaxI" name="Page-1">
    <mxGraphModel dx="976" dy="586" grid="1" gridSize="10" guides="1" tooltips="1" connect="1" arrows="1" fold="1" page="1" pageScale="1" pageWidth="850" pageHeight="1100" math="0" shadow="0">
      <root>
        <mxCell id="0" />
        <mxCell id="1" parent="0" />
        <mxCell id="83U9YLY0niQRXOLyUrli-1" value="Inventory manger" style="shape=umlActor;verticalLabelPosition=bottom;verticalAlign=top;html=1;outlineConnect=0;" vertex="1" parent="1">
          <mxGeometry x="100" y="40" width="30" height="60" as="geometry" />
        </mxCell>
        <mxCell id="83U9YLY0niQRXOLyUrli-2" value="Notification Service" style="shape=umlActor;verticalLabelPosition=bottom;verticalAlign=top;html=1;outlineConnect=0;" vertex="1" parent="1">
          <mxGeometry x="550" y="40" width="30" height="60" as="geometry" />
        </mxCell>
        <mxCell id="83U9YLY0niQRXOLyUrli-3" value="Admin" style="shape=umlActor;verticalLabelPosition=bottom;verticalAlign=top;html=1;outlineConnect=0;" vertex="1" parent="1">
          <mxGeometry x="90" y="440" width="30" height="60" as="geometry" />
        </mxCell>
        <mxCell id="83U9YLY0niQRXOLyUrli-4" value="Supplier" style="shape=umlActor;verticalLabelPosition=bottom;verticalAlign=top;html=1;outlineConnect=0;" vertex="1" parent="1">
          <mxGeometry x="560" y="440" width="30" height="60" as="geometry" />
        </mxCell>
        <mxCell id="83U9YLY0niQRXOLyUrli-6" value="Login/Logout" style="ellipse;whiteSpace=wrap;html=1;" vertex="1" parent="1">
          <mxGeometry x="270" y="40" width="140" height="70" as="geometry" />
        </mxCell>
        <mxCell id="83U9YLY0niQRXOLyUrli-7" value="Manage Inventory" style="ellipse;whiteSpace=wrap;html=1;" vertex="1" parent="1">
          <mxGeometry x="270" y="130" width="140" height="70" as="geometry" />
        </mxCell>
        <mxCell id="83U9YLY0niQRXOLyUrli-8" value="Raise Invoice" style="ellipse;whiteSpace=wrap;html=1;" vertex="1" parent="1">
          <mxGeometry x="270" y="210" width="140" height="70" as="geometry" />
        </mxCell>
        <mxCell id="83U9YLY0niQRXOLyUrli-9" value="Place order" style="ellipse;whiteSpace=wrap;html=1;" vertex="1" parent="1">
          <mxGeometry x="270" y="380" width="140" height="70" as="geometry" />
        </mxCell>
        <mxCell id="83U9YLY0niQRXOLyUrli-10" value="Pay supplier" style="ellipse;whiteSpace=wrap;html=1;" vertex="1" parent="1">
          <mxGeometry x="270" y="295" width="140" height="70" as="geometry" />
        </mxCell>
        <mxCell id="83U9YLY0niQRXOLyUrli-12" value="send notification" style="ellipse;whiteSpace=wrap;html=1;" vertex="1" parent="1">
          <mxGeometry x="270" y="470" width="140" height="70" as="geometry" />
        </mxCell>
      </root>
    </mxGraphModel>
  </diagram>
</mxfile>
